<svg xmlns="http://www.w3.org/2000/svg" width="207" height="207" viewBox="0 0 207 207"><defs><style>.a{fill:#f2f2f2;}.b{fill:#b78b35;}.c{fill:#000e4e;}.d{fill:#1e5cd1;}.e{fill:#fff;}</style></defs><g transform="translate(-857 -763)"><circle class="a" cx="103.5" cy="103.5" r="103.5" transform="translate(857 763)"/><g transform="translate(-7.125 -5.979)"><circle class="b" cx="5.579" cy="5.579" r="5.579" transform="translate(898 903.921)"/><circle class="c" cx="3.905" cy="3.905" r="3.905" transform="translate(1016.281 896.11)"/><circle class="d" cx="3.905" cy="3.905" r="3.905" transform="translate(932.591 818)"/><path class="c" d="M1417.1,1479.572v4.847H1345.37V1440.4a1.632,1.632,0,0,1,1.63-1.63h47.508v-3.261H1347a4.9,4.9,0,0,0-4.891,4.891v52.174a4.9,4.9,0,0,0,4.891,4.891h24.454v9.783H1363.3a1.63,1.63,0,0,0,0,3.261h35.866a1.63,1.63,0,0,0,0-3.261h-8.151v-9.783h24.454a4.9,4.9,0,0,0,4.891-4.891v-13Zm-29.345,27.673h-13.042v-9.783h13.042Zm29.345-14.674a1.631,1.631,0,0,1-1.63,1.63H1347a1.632,1.632,0,0,1-1.63-1.63v-4.891H1417.1Z" transform="translate(-418.545 -583.541)"/><g transform="translate(955.511 818)"><path class="b" d="M1983.9,889.479a1.411,1.411,0,0,0-1.289-.177l-16.959,6.031v-7.845a4.969,4.969,0,0,0-4.964-4.968h-7.158a2.813,2.813,0,0,0-.543-.709l-19.3-16.963a2.457,2.457,0,0,0-.362-.207,2.908,2.908,0,0,0-.513-.3,2.873,2.873,0,0,0-.618-.125,3.131,3.131,0,0,0-.373-.075h-28.958a2.827,2.827,0,1,0,0,5.654h27.89l14.475,12.722h-45.282a4.976,4.976,0,0,0-4.972,4.968v43.153a4.975,4.975,0,0,0,4.972,4.964h60.741a4.968,4.968,0,0,0,4.964-4.964v-7.848l16.959,6.031a1.381,1.381,0,0,0,.475.083,1.41,1.41,0,0,0,1.414-1.413V890.636A1.412,1.412,0,0,0,1983.9,889.479Z" transform="translate(-1894.976 -864.144)"/><path class="e" d="M9.56,2.858a2,2,0,0,1,3.43,0l7.743,12.9a2,2,0,0,1-1.715,3.029H3.532a2,2,0,0,1-1.715-3.029Z" transform="translate(48.051 35.731) rotate(90)"/></g></g></g></svg>