<svg xmlns="http://www.w3.org/2000/svg" width="209.727" height="207" viewBox="0 0 209.727 207"><defs><style>.a{fill:#f2f2f2;}.b{fill:#b78b35;}.c{fill:#000e4e;}.d{fill:#1e5cd1;}.e{fill:none;stroke:#fff;stroke-linecap:round;stroke-width:4px;}.f,.g{fill:#fff;stroke:#b78b35;}.g{stroke-width:3px;}</style></defs><g transform="translate(-315.273 -763)"><circle class="a" cx="103.5" cy="103.5" r="103.5" transform="translate(318 763)"/><circle class="b" cx="4.5" cy="4.5" r="4.5" transform="translate(463 906)"/><circle class="c" cx="6.5" cy="6.5" r="6.5" transform="translate(376 797)"/><circle class="d" cx="4.5" cy="4.5" r="4.5" transform="translate(355 886)"/><g transform="translate(445.415 -246.969)"><g transform="translate(3.328 8.384)"><path class="c" d="M-71.02,1076.6c-4.9,0-8.2-3.354-8.2-8.359s3.294-8.359,8.2-8.359,8.2,3.36,8.2,8.359S-66.116,1076.6-71.02,1076.6Zm0-14c-3.422,0-5.464,2.109-5.464,5.644s2.044,5.644,5.464,5.644,5.466-2.109,5.466-5.644S-67.6,1062.593-71.02,1062.593Z" transform="translate(42.68 34.222)"/><path class="c" d="M-56.918,1084.2a1.361,1.361,0,0,1-1.364-1.353,8.181,8.181,0,0,0-8.2-8.146h-5.466a8.179,8.179,0,0,0-8.2,8.146,1.367,1.367,0,0,1-1.367,1.367,1.368,1.368,0,0,1-1.367-1.367,10.908,10.908,0,0,1,10.93-10.866h5.464a10.907,10.907,0,0,1,10.929,10.866,1.361,1.361,0,0,1-1.365,1.358h0" transform="translate(40.873 40.198)"/></g><g transform="translate(2.111 25.299)"><g transform="translate(-6.162 1031.936)"><path class="b" d="M-61.756,1081.15a1.85,1.85,0,0,1-.8-.185,1.829,1.829,0,0,1-1.022-1.641v-43.031a4.2,4.2,0,0,1,4-4.357h45.638a4.2,4.2,0,0,1,4,4.357v30.376a4.2,4.2,0,0,1-4,4.357H-48.091l-12.546,9.741A1.826,1.826,0,0,1-61.756,1081.15Z" transform="translate(63.582 -1031.936)"/><path class="b" d="M-61.756,1081.15a1.85,1.85,0,0,1-.8-.185,1.829,1.829,0,0,1-1.022-1.641v-43.031a4.2,4.2,0,0,1,4-4.357h45.638a4.2,4.2,0,0,1,4,4.357v30.376a4.2,4.2,0,0,1-4,4.357H-48.091l-12.546,9.741A1.826,1.826,0,0,1-61.756,1081.15Zm2.173-45.563c-.086,0-.347.251-.347.706v39.3l10.093-7.839a1.831,1.831,0,0,1,1.12-.383h34.772c.089,0,.347-.242.347-.7v-30.376c0-.455-.26-.706-.347-.706Z" transform="translate(63.582 -1031.936)"/></g><line class="e" x2="23.588" transform="translate(10.052 1044.666)"/><line class="e" x2="23.588" transform="translate(10.052 1053.183)"/></g><path class="c" d="M1417.11,1452.826v31.593h-71.739V1440.4a1.632,1.632,0,0,1,1.63-1.63h47.512v-3.261H1347a4.9,4.9,0,0,0-4.891,4.891v52.174a4.9,4.9,0,0,0,4.891,4.891h24.457v9.783h-8.152a1.631,1.631,0,0,0,0,3.261h35.87a1.631,1.631,0,0,0,0-3.261h-8.152v-9.783h24.457a4.9,4.9,0,0,0,4.891-4.891v-39.745Zm-29.348,54.419h-13.043v-9.783h13.043Zm29.348-14.674a1.631,1.631,0,0,1-1.63,1.63H1347a1.632,1.632,0,0,1-1.63-1.63v-4.891h71.739Z" transform="translate(-1406.251 -345.664)"/><path class="a" d="M0,0H30V47l-7.785,4.6L7.194,39.655Z" transform="translate(-79.415 1084.969)"/><g transform="translate(-128.642 1063.788)"><path class="f" d="M8.009,1099.941a2.556,2.556,0,0,0,1.11-.256,2.527,2.527,0,0,0,1.413-2.267v-59.461a5.8,5.8,0,0,0-5.525-6.021H-58.057a5.8,5.8,0,0,0-5.525,6.021v41.974a5.8,5.8,0,0,0,5.525,6.02h47.183l17.336,13.461A2.524,2.524,0,0,0,8.009,1099.941Z" transform="translate(63.582 -1031.936)"/><path class="g" d="M8.009,1099.941a2.556,2.556,0,0,0,1.11-.256,2.527,2.527,0,0,0,1.413-2.267v-59.461a5.8,5.8,0,0,0-5.525-6.021H-58.057a5.8,5.8,0,0,0-5.525,6.021v41.974a5.8,5.8,0,0,0,5.525,6.02h47.183l17.336,13.461A2.524,2.524,0,0,0,8.009,1099.941Z" transform="translate(63.582 -1031.936)"/><g transform="translate(22.103 9.814)"><g transform="translate(5.981)"><path class="b" d="M-37.91,1056.073c5.365,0,8.972-3.67,8.972-9.15s-3.606-9.152-8.972-9.152-8.975,3.678-8.975,9.152S-43.279,1056.073-37.91,1056.073Zm0-15.328c3.746,0,5.981,2.309,5.981,6.178s-2.237,6.178-5.981,6.178-5.983-2.309-5.983-6.178S-41.654,1040.745-37.91,1040.745Z" transform="translate(46.885 -1037.771)"/></g><path class="b" d="M-48.947,1062.914a1.492,1.492,0,0,0,1.5-1.482,8.953,8.953,0,0,1,8.972-8.916H-32.5a8.955,8.955,0,0,1,8.973,8.916,1.5,1.5,0,0,0,1.5,1.5,1.5,1.5,0,0,0,1.5-1.5,11.942,11.942,0,0,0-11.966-11.9h-5.981a11.94,11.94,0,0,0-11.964,11.9,1.49,1.49,0,0,0,1.494,1.487h0" transform="translate(50.442 -1029.747)"/></g></g></g></g></svg>