<svg xmlns="http://www.w3.org/2000/svg" width="207" height="207" viewBox="0 0 207 207"><defs><style>.a{fill:#f2f2f2;}.b{fill:#000e4e;}.c,.d{fill:#fff;}.c{stroke:#b78b35;stroke-width:3px;}.e{fill:#b78b35;}.f{fill:#1e5cd1;}.g{stroke:none;}.h{fill:none;}</style></defs><g transform="translate(-1386 -763)"><circle class="a" cx="103.5" cy="103.5" r="103.5" transform="translate(1386 763)"/><g transform="translate(-7.873 -5.754)"><g transform="translate(1445.473 809.872)"><path class="b" d="M1417.11,1479.571v4.848h-71.739V1440.4a1.632,1.632,0,0,1,1.63-1.63h47.512v-3.261H1347a4.9,4.9,0,0,0-4.891,4.891v52.174a4.9,4.9,0,0,0,4.891,4.891h24.457v9.783h-8.152a1.63,1.63,0,0,0,0,3.261h35.869a1.63,1.63,0,0,0,0-3.261h-8.152v-9.783h24.456a4.9,4.9,0,0,0,4.891-4.891v-13Zm-29.348,27.673h-13.043v-9.783h13.043Zm29.348-14.674a1.631,1.631,0,0,1-1.63,1.63H1347a1.632,1.632,0,0,1-1.63-1.63v-4.891h71.739Z" transform="translate(-1342.11 -1403.465)"/><g transform="translate(51.093 0)"><g class="c"><rect class="g" width="52.584" height="68.482" rx="5"/><rect class="h" x="1.5" y="1.5" width="49.584" height="65.482" rx="3.5"/></g><ellipse class="d" cx="12.84" cy="13.452" rx="12.84" ry="13.452" transform="translate(34.241 44.024)"/><g transform="translate(0 0)"><g transform="translate(11.125 14.291)"><path class="e" d="M1387.808,1444.837a1.884,1.884,0,0,1-1.336-.554l-5.041-5.041a1.89,1.89,0,0,1,2.672-2.674l3.705,3.705,6.226-6.226a1.891,1.891,0,0,1,2.674,2.674l-7.562,7.562A1.886,1.886,0,0,1,1387.808,1444.837Z" transform="translate(-1380.877 -1433.493)"/><path class="e" d="M1400.348,1439.5h-8.823a1.891,1.891,0,0,1,0-3.782h8.823a1.891,1.891,0,1,1,0,3.782Z" transform="translate(-1371.988 -1431.233)"/><path class="e" d="M1387.808,1451.724a1.886,1.886,0,0,1-1.336-.554l-5.041-5.043a1.889,1.889,0,0,1,2.672-2.672l3.705,3.7,6.226-6.226a1.891,1.891,0,0,1,2.674,2.674l-7.562,7.564A1.887,1.887,0,0,1,1387.808,1451.724Z" transform="translate(-1380.877 -1426.503)"/><path class="e" d="M1387.808,1458.7a1.885,1.885,0,0,1-1.336-.554l-5.041-5.044a1.889,1.889,0,0,1,2.672-2.672l3.705,3.7,6.226-6.226a1.891,1.891,0,0,1,2.674,2.674l-7.562,7.564A1.886,1.886,0,0,1,1387.808,1458.7Z" transform="translate(-1380.877 -1419.421)"/><path class="e" d="M1400.348,1446.388h-8.823a1.891,1.891,0,0,1,0-3.782h8.823a1.891,1.891,0,1,1,0,3.782Z" transform="translate(-1371.988 -1424.243)"/></g></g><path class="e" d="M1406.378,1448.079a16.542,16.542,0,1,0,16.544,16.542A16.543,16.543,0,0,0,1406.378,1448.079Zm8.352,13.415-10.02,10.016a2.323,2.323,0,0,1-3.289,0l-4-4a2.32,2.32,0,0,1,0-3.284,2.327,2.327,0,0,1,3.284,0l2.361,2.361,8.374-8.372a2.313,2.313,0,0,1,1.64-.681h0a2.31,2.31,0,0,1,1.644.681A2.336,2.336,0,0,1,1414.73,1461.494Z" transform="translate(-1358.94 -1407.281)"/></g></g><circle class="b" cx="4" cy="4" r="4" transform="translate(1557.873 835.754)"/><circle class="f" cx="3.5" cy="3.5" r="3.5" transform="translate(1534.873 905.754)"/><circle class="e" cx="4.5" cy="4.5" r="4.5" transform="translate(1417.873 884.754)"/></g></g></svg>